<svg width="62" height="45" viewBox="0 0 62 45" fill="none" xmlns="http://www.w3.org/2000/svg">
<path d="M24.2432 20.8791C28.0971 17.0252 28.1092 10.789 24.2702 6.95009C20.4313 3.11117 14.1951 3.12326 10.3413 6.97709C6.48743 10.8309 6.47534 17.0671 10.3143 20.9061C14.1532 24.745 20.3894 24.7329 24.2432 20.8791Z" stroke="black" stroke-width="2.25146" stroke-miterlimit="10"/>
<path d="M32.1559 44.0587C32.1559 35.2415 25.4053 28.0938 17.078 28.0938C8.75064 28.0938 2 35.2415 2 44.0587" stroke="black" stroke-width="2.25146" stroke-miterlimit="10"/>
<path d="M60.5369 44.0587C60.5369 35.2415 53.7986 28.0938 45.4865 28.0938C40.8423 28.0938 36.6895 30.325 33.9287 33.8321" stroke="black" stroke-width="2.25146" stroke-miterlimit="10"/>
<path d="M52.3702 20.8791C56.224 17.0252 56.2361 10.789 52.3972 6.95009C48.5583 3.11117 42.3221 3.12326 38.4682 6.97709C34.6144 10.8309 34.6023 17.0671 38.4412 20.9061C42.2801 24.745 48.5164 24.7329 52.3702 20.8791Z" stroke="black" stroke-width="2.25146" stroke-miterlimit="10"/>
</svg>
